<?xml version="1.0" encoding="utf-8"?>
<!-- Generator: Adobe Illustrator 24.0.0, SVG Export Plug-In . SVG Version: 6.00 Build 0)  -->
<svg version="1.1" id="Layer_1" xmlns="http://www.w3.org/2000/svg" xmlns:xlink="http://www.w3.org/1999/xlink" x="0px" y="0px"
	 viewBox="0 0 335.6 115.3" style="enable-background:new 0 0 335.6 115.3;" xml:space="preserve">
<style type="text/css">
	.st0{fill:url(#SVGID_1_);}
	.st1{fill:#FFFFFF;}
	.st2{fill:url(#SVGID_2_);}
	.st3{fill:url(#SVGID_3_);}
	.st4{fill:#FF6E03;}
	.st5{fill:#0B1B2D;}
	.st6{fill:#FD6423;}
	.st7{fill:#001F4C;}
	.st8{fill:#FF5A00;}
	.st9{fill:#FFD600;}
	.st10{fill:#0071FD;}
	.st11{fill:#FF7606;}
	.st12{fill:#F47920;}
	.st13{fill:#F5F9FE;}
	.st14{fill:#DEEEFC;}
	.st15{fill:#FFE7D7;}
	.st16{fill:#05C124;}
	.st17{fill:url(#SVGID_8_);}
	.st18{opacity:0.3;}
	.st19{clip-path:url(#SVGID_10_);}
	.st20{fill:url(#SVGID_13_);}
	.st21{fill:#FFF8F5;}
	.st22{fill:url(#SVGID_14_);}
	.st23{clip-path:url(#SVGID_16_);}
	.st24{fill:#F9B78A;}
	.st25{fill:#FCD0B1;}
	.st26{fill:#FFC9A4;}
	.st27{fill:url(#SVGID_19_);}
	.st28{fill:url(#SVGID_20_);}
	.st29{fill:url(#SVGID_21_);}
	.st30{fill:url(#SVGID_22_);}
	.st31{fill:url(#SVGID_23_);}
	.st32{fill:url(#SVGID_24_);}
	.st33{fill:url(#SVGID_25_);}
	.st34{fill:url(#SVGID_26_);}
	.st35{fill:url(#SVGID_27_);}
	.st36{fill:url(#SVGID_28_);}
	.st37{fill:url(#SVGID_29_);}
	.st38{fill:url(#SVGID_30_);}
	.st39{fill:url(#SVGID_31_);}
	.st40{fill:url(#SVGID_32_);}
	.st41{fill:url(#SVGID_33_);}
	.st42{fill:url(#SVGID_34_);}
	.st43{fill:url(#SVGID_35_);}
	.st44{opacity:0.7;fill:url(#SVGID_36_);}
	.st45{fill:url(#SVGID_37_);}
	.st46{fill:url(#SVGID_38_);}
	.st47{fill:url(#SVGID_39_);}
	.st48{opacity:0.4;fill:url(#SVGID_40_);}
	.st49{clip-path:url(#SVGID_42_);fill:#001F4C;}
	.st50{clip-path:url(#SVGID_42_);fill:url(#SVGID_43_);}
	.st51{fill:url(#SVGID_44_);}
	.st52{opacity:0.5;}
</style>
<g>
	<g>
		<path class="st7" d="M185.9,85.4h1.8c0.7,0,1.2,0.6,1.2,1.2v0.7c0.4-0.8,1.5-1.7,3-2.1c0.8-0.2,1.7,0.4,1.7,1.3V88
			c0,0-4.7-0.2-4.7,4.8v5.8h-3V85.4z"/>
		<g>
			<path class="st7" d="M241.6,85.4h1.6v13.2h-3V86.8C240.3,86,240.9,85.4,241.6,85.4z"/>
			<path class="st7" d="M246.4,85.4h1.7c0.7,0,1.3,0.6,1.3,1.3v0.7c0.9-1.3,2.1-2.3,4.1-2.3c3,0,4.7,2,4.7,5.1v8.4h-3v-7.5
				c0-2.1-1-3.2-2.8-3.2c-1.8,0-3,1.2-3,3.3v7.5h-3V85.4z"/>
		</g>
		<path class="st7" d="M209.9,85.4h1.7c0.7,0,1.3,0.6,1.3,1.3v0.7c0.9-1.3,2.1-2.3,4.1-2.3c3,0,4.7,2,4.7,5.1v8.4h-3v-7.5
			c0-2.1-1-3.2-2.8-3.2c-1.8,0-3,1.2-3,3.3v7.5h-3V85.4z"/>
		<path class="st7" d="M180.7,89.5c1.3-0.7,2.5-1.8,2.5-3.9v0c0-1.2-0.4-2.1-1.2-2.9c-1-1-2.6-1.6-4.6-1.6h-7.9v17.5h8.1
			c3.9,0,6.5-1.7,6.5-4.8v-0.1C184.2,91.3,182.8,90.2,180.7,89.5z M181.1,93.4c0,1.6-1.3,2.4-3.4,2.4h-5.1V83.8h4.4
			c2,0,3.1,0.8,3.1,2.2v0c0,1.6-1.3,2.4-3.3,2.4h-2.7V91h3.3C179.9,91,181.1,91.9,181.1,93.4L181.1,93.4z"/>
		<path class="st7" d="M201.1,85.2c-2.2,0-3.6,0.4-5,1.1l0.3,0.9c0.3,0.8,1.1,1.2,1.9,1c0.7-0.2,1.5-0.3,2.4-0.3
			c2.5,0,3.3,1.3,3.3,2.9c0,0.8,0,3.1,0,3.1c0,1.7-1.5,2.8-3.5,2.8c-1.4,0-2.6-0.7-2.6-2v-0.1c0-1.3,1.1-2.1,3-2.1
			c0.5,0,1,0,1.5,0.1v-0.5c0-1-0.8-1.8-1.7-1.8c-0.1,0-0.3,0-0.4,0c-3.1,0-5.4,1.4-5.4,4.3v0.1c0,2.7,2.2,4.1,4.7,4.1
			c2,0,3.4-0.8,4.3-1.9l0,0c0,0.9,0.7,1.6,1.6,1.6h1.4v-7.8C206.9,87.2,205,85.2,201.1,85.2z"/>
		<path class="st7" d="M270.6,86.8V87c-0.5-0.6-1.2-1-1.9-1.4c-0.8-0.3-1.6-0.5-2.5-0.5c-3.3,0-6,2.6-6.2,5.9c0,0.1,0,0.2,0,0.2v0.1
			c0,0.2,0,0.3,0,0.5c0.3,3.1,2.8,5.6,6,5.7c0,0,0.1,0,0.1,0c1.8,0,3.4-0.7,4.5-1.9V96c0,2.7-1.5,4.1-4.2,4.1
			c-1.2,0-2.3-0.3-3.4-0.7c-0.8-0.3-1.7,0-2.1,0.7l-0.4,0.8c1.7,1.1,3.7,1.6,5.9,1.6c2.4,0,4.2-0.6,5.4-1.8c1.1-1.1,1.7-2.8,1.7-5
			V85.3h-1.5C271.3,85.3,270.6,85.9,270.6,86.8z M263,91.3c0-0.1,0-0.3,0-0.4c0.1-1.2,0.8-2.2,1.7-2.8c0.6-0.4,1.3-0.6,2.1-0.6
			c0.9,0,1.7,0.3,2.4,0.9c0.9,0.7,1.4,1.8,1.4,2.9c0,0.7-0.2,1.4-0.6,2c-0.7,1.1-1.9,1.8-3.2,1.8C264.7,95,263,93.4,263,91.3z"/>
		<path class="st7" d="M234.2,81.1v7.3c-1.1-1.2-2.7-1.9-4.5-1.9c0,0-0.1,0-0.1,0c-3.2,0.1-5.8,2.5-6,5.7c0,0.2,0,0.3,0,0.5v0
			c0,0.1,0,0.2,0,0.2c0.1,3.3,2.9,5.9,6.2,5.9c0.9,0,1.8-0.2,2.5-0.5c0.7-0.3,1.4-0.8,1.9-1.4v0.2c0,0.8,0.7,1.5,1.5,1.5h1.5
			c0,0,0-10.2,0-15.8c0-1-0.8-1.8-1.8-1.8H234.2z M232.8,95.6c-0.7,0.5-1.5,0.9-2.4,0.9c-0.8,0-1.5-0.2-2.1-0.6
			c-0.9-0.6-1.6-1.6-1.7-2.8c0-0.1,0-0.3,0-0.4c0-2.1,1.7-3.8,3.8-3.8c1.4,0,2.6,0.7,3.2,1.8c0.4,0.6,0.6,1.3,0.6,2
			C234.2,93.9,233.6,94.9,232.8,95.6z"/>
	</g>
	<g>
		<g>
			<path id="XMLID_95_" class="st8" d="M181.3,18.4c0-3.3-2.6-5.9-5.9-5.9c-3.3,0-5.9,2.6-5.9,5.9c0,3.3,2.6,5.9,5.9,5.9
				C178.6,24.3,181.3,21.6,181.3,18.4z"/>
			<path class="st8" d="M83.8,29.4c-0.2,0-0.4,0-0.6,0c-0.1,0-0.1,0-0.2,0c-0.2,0-0.4,0-0.6,0c0,0,0,0,0,0c0,0,0,0,0,0c0,0,0,0,0,0
				c0,0-0.1,0-0.1,0c-5.7,0-10.8,2.9-13.8,7.4c-0.5-3.7-3.7-6.6-7.6-6.6H58c-0.4,0-0.8,0.3-0.8,0.8c0,0,0,0,0,0v0.3v13.3v30.2
				c0,0.4,0.4,0.8,0.8,0.8h9.9c0.4,0,0.8-0.4,0.8-0.8l0-19.1l0-4.9v0c0,0,0,0,0,0c0-3.2,1.6-6.1,4.1-7.8c1.5-1.1,3.4-1.7,5.4-1.7
				c5.1,0,9.2,4,9.5,9v1V62v12.6c0,0.5,0.4,0.8,0.8,0.8h9.9c0.5,0,0.9-0.4,0.9-0.9V46.1v0c0,0,0,0,0,0
				C99.2,37.3,92.4,30.1,83.8,29.4z"/>
			<path class="st8" d="M46.2,72.8C46.2,72.8,46.2,72.8,46.2,72.8c-0.1-0.3-0.3-0.6-0.4-1c0,0,0,0,0,0c0-0.1-0.1-0.2-0.1-0.3
				c-0.2-0.6-0.3-1.3-0.3-2.1v-6V48.1c0-6-1.8-10.6-5.4-13.8c-3.6-3.2-8.6-4.8-15.1-4.8c-6.3,0-12.2,1.7-17.7,5.1
				c-0.6,0.4-0.8,1.2-0.5,1.8l2.5,5.1c0.3,0.5,0.9,0.7,1.4,0.4c2.1-1.4,4.1-2.4,6.1-3.1c2.3-0.9,4.6-1.3,7-1.3
				c3.3,0,5.8,0.8,7.5,2.4c1.7,1.6,2.5,3.9,2.5,6.9c0,0,0,9,0,10.3c0,1.9-0.1,7.1-6,9.6c-1.7,0.7-3.6,1-5.5,1
				c-6.8,0-7.8-5.3-7.7-6.8c0.1-2.1,0.9-3.8,2.8-5.1c1.9-1.3,4.3-2,7.3-2c1.1,0,2.3,0,3.6,0.3c1.1,0.2,1.7-0.8,1.7-1.3
				c0-2.9-2.2-5.1-4.9-5.4c-0.6-0.1-1.6-0.1-2.3-0.1c-2.8,0-5.3,0.4-7.6,1.1c-2.3,0.7-4.4,1.7-6.1,3c-1.7,1.3-3,2.8-4,4.6
				c-0.9,1.8-1.4,3.8-1.4,5.9c0,4.4,2.1,8.6,5.6,11.2c3.9,2.8,9,3.7,13.7,2.8c1.3-0.3,2.6-0.7,3.9-1.2c2.7-1.2,5.1-3.1,6.8-5.5
				c0.3,3.3,2.9,6,6.2,6.3c0.2,0,0.4,0,0.7,0h0.6h5.4c0.5,0,0.8-0.6,0.5-1C46.8,74,46.5,73.4,46.2,72.8z"/>
			<path class="st8" d="M155.6,69.4c0-2.5,0-15,0-25.1c0-6.3,0-11.7,0-13.1c0-0.2,0-0.3,0-0.3c0-0.1,0-0.2,0-0.3
				c-0.1-0.2-0.3-0.4-0.6-0.5c0,0-0.1,0-0.1,0l-2.4,0l-1,0c-0.9,0-1.8,0.2-2.7,0.5c-2.2,0.9-4,2.8-4.6,5.2c0,0-0.1-0.1-0.1-0.1
				c0,0,0,0,0,0c-1.3-1.4-2.8-2.6-4.4-3.5c-3-1.8-6.5-2.9-10.2-2.9c-0.1,0-0.3,0-0.6,0c-0.9,0-1.7,0.1-2.5,0.2c0,0-0.1,0-0.1,0
				c-0.1,0-0.1,0-0.2,0c-1.4,0.3-3.1,0.7-4.9,1.6c-1.1,0.5-2.5,1.3-4,2.5c-0.1,0.1-0.1,0.1-0.2,0.2c0,0-0.1,0-0.1,0.1
				c-2.2,1.8-4.1,4.1-5.5,6.7c-0.1,0.1-0.1,0.2-0.2,0.4c0,0,0,0.1-0.1,0.1c-0.1,0.2-0.2,0.3-0.2,0.5c0,0,0,0,0,0.1
				c-0.1,0.2-0.2,0.4-0.3,0.6c0,0,0,0,0,0.1c0,0.1,0,0.1-0.1,0.2c-0.8,1.8-1.3,3.6-1.7,5.6c-0.4,2.1-0.5,4.8-0.2,7.8
				c0.3,1.9,0.7,3.8,1.4,5.5c0,0.1,0.1,0.2,0.1,0.4c0,0,0,0.1,0,0.1c0.1,0.3,0.3,0.6,0.4,0.9c0,0,0,0,0,0.1c0.1,0.1,0.1,0.2,0.2,0.3
				c0,0.1,0.1,0.2,0.1,0.3c0,0.1,0.1,0.1,0.1,0.2c0,0.1,0.1,0.2,0.1,0.3c0.1,0.2,0.2,0.4,0.3,0.5c1.3,2.4,2.8,4.2,4.4,5.7
				c0,0,0.1,0.1,0.1,0.1c0.1,0.1,0.2,0.2,0.2,0.2c0.1,0.1,0.1,0.1,0.2,0.2c0,0,0.1,0.1,0.1,0.1c0.1,0.1,0.2,0.2,0.3,0.2
				c0,0,0.1,0.1,0.1,0.1c0.1,0.1,0.2,0.1,0.2,0.2c0,0,0.1,0.1,0.1,0.1c0.1,0.1,0.2,0.1,0.3,0.2c0.1,0.1,0.1,0.1,0.2,0.2c0,0,0,0,0,0
				c2.7,1.9,5.4,2.9,7.5,3.4c0.1,0,0.2,0,0.2,0.1c0.1,0,0.1,0,0.2,0c0.1,0,0.2,0,0.3,0c0.1,0,0.2,0,0.2,0c1,0.2,2.1,0.3,3.1,0.3
				c1.2,0,2.3-0.1,3.5-0.3c5.3-1.1,7.6-5.8,7.2-9.4c0-0.6-0.6-1.3-1.4-1.3c-0.2,0-0.4,0-0.6,0.1c-6.5,3.2-11.9-0.1-14.1-2.6
				c-4.6-5.1-3.8-11-3.4-12.9c1.4-6.1,6.4-10.5,12.3-10.4c6.1,0.1,11,5.2,11,11.3v19v5.3c0,4.1-2.7,7.3-3.9,8.3
				c-1.3,1.1-2.8,1.8-4.5,2.3c-1.7,0.5-3.4,0.7-5.2,0.7c-1.3,0-4.6,0-8.4-1.8c-1.9-0.9-3.5-2-5-3.3c-0.3-0.3-0.9-0.3-1.2,0l-5.3,5.3
				c-0.3,0.3-0.3,0.9,0,1.2c5.2,4.9,12.1,7.8,19.8,7.8c4.9,0,9.6-1.2,13.6-3.4c0,0,0,0,0.1,0c1.6-0.8,5.8-3.3,9.2-9.4
				C155.9,77.9,155.6,71.4,155.6,69.4z"/>
			<path class="st8" d="M219.3,66.5c-1,0.5-2.2,0.9-3.4,0.8c-3.8-0.1-6.9-3.3-6.9-7.1V39h8.3c0.5,0,0.9-0.4,0.9-0.9v-7
				c0-0.5-0.4-0.9-0.9-0.9h-7.4c-0.5,0-0.9-0.4-0.9-0.9l0-9.8c0-0.5-0.4-0.9-0.9-0.9c0,0-4.8,0-6.9,0c-0.5,0-1,0.4-1,0.9
				c-0.3,7-3.4,13.3-8.3,17.6c-0.3,0.3-0.5,0.7-0.5,1.1c0,0.5,0.4,1,1,1h5v26c0,2,0.3,3.8,0.9,5.1c1.7,3.6,4.6,4.9,6.3,5.4
				c4.8,1.3,10.5,0.6,16.6-2.1c0.4-0.2,0.7-0.6,0.6-1.1l-1.3-5.4C220.3,66.5,219.8,66.2,219.3,66.5z"/>
			<path class="st8" d="M181.2,30.9C181.2,30.9,181.2,30.9,181.2,30.9c-0.1-0.4-0.4-0.7-0.7-0.8c0,0,0,0,0,0c0,0-0.1,0-0.1,0
				c0,0,0,0-0.1,0h-9.8c0,0,0,0-0.1,0c0,0-0.1,0-0.1,0c0,0,0,0,0,0c-0.3,0.1-0.6,0.3-0.7,0.7c0,0,0,0,0,0.1c0,0,0,0.1,0,0.1v0v43.5
				v0c0,0,0,0.1,0,0.1c0,0,0,0,0,0.1c0.1,0.4,0.3,0.6,0.7,0.7c0,0,0,0,0,0c0,0,0.1,0,0.1,0c0,0,0,0,0.1,0h9.8c0,0,0,0,0.1,0
				c0,0,0.1,0,0.1,0c0,0,0,0,0,0c0.3-0.1,0.6-0.3,0.7-0.7c0,0,0,0,0-0.1c0,0,0-0.1,0-0.1v0V31.1v0C181.2,31,181.2,31,181.2,30.9z"/>
			<path class="st8" d="M251.3,28.8c-14.1,0-25.5,10.6-25.5,23.6c0,13,11.4,23.6,25.5,23.6c14.1,0,25.5-10.6,25.5-23.6
				C276.8,39.4,265.4,28.8,251.3,28.8z M251.3,65.9c-7.4,0-13.5-6-13.5-13.5c0-7.4,6-13.5,13.5-13.5c7.4,0,13.5,6,13.5,13.5
				C264.8,59.8,258.7,65.9,251.3,65.9z"/>
		</g>
	</g>
</g>
</svg>
