<svg id="Layer_4" data-name="Layer 4" xmlns="http://www.w3.org/2000/svg" xmlns:xlink="http://www.w3.org/1999/xlink" viewBox="0 0 1043.31 451.33"><defs><style>.cls-1{fill:none;}.cls-2{fill:#facca3;opacity:0.3;}.cls-3{opacity:0.6;}.cls-4{clip-path:url(#clip-path);}.cls-5{fill:url(#linear-gradient);}.cls-6{fill:url(#linear-gradient-2);}.cls-7{fill:url(#linear-gradient-3);}.cls-8{fill:url(#linear-gradient-4);}.cls-9{fill:url(#linear-gradient-5);}.cls-10{fill:url(#linear-gradient-6);}.cls-11{fill:url(#linear-gradient-7);}.cls-12{fill:url(#linear-gradient-8);}.cls-13{fill:url(#linear-gradient-9);}.cls-14{fill:url(#linear-gradient-10);}.cls-15{fill:url(#linear-gradient-11);}.cls-16{fill:url(#linear-gradient-12);}.cls-17{fill:url(#linear-gradient-13);}.cls-18{fill:url(#linear-gradient-14);}.cls-19{fill:url(#linear-gradient-15);}.cls-20{fill:url(#linear-gradient-16);}.cls-21{fill:url(#linear-gradient-17);}.cls-22{fill:url(#linear-gradient-18);}.cls-23{fill:url(#linear-gradient-19);}.cls-24{fill:url(#linear-gradient-20);}.cls-25{fill:url(#linear-gradient-21);}.cls-26{fill:url(#linear-gradient-22);}.cls-27{fill:url(#linear-gradient-23);}.cls-28{fill:url(#linear-gradient-24);}.cls-29{fill:url(#linear-gradient-25);}.cls-30{fill:url(#linear-gradient-26);}.cls-31{fill:url(#linear-gradient-27);}.cls-32{fill:url(#linear-gradient-28);}.cls-33{fill:url(#linear-gradient-29);}.cls-34{fill:url(#linear-gradient-30);}.cls-35{fill:url(#linear-gradient-31);}.cls-36{fill:url(#linear-gradient-32);}.cls-37{fill:url(#linear-gradient-33);}.cls-38{fill:url(#linear-gradient-34);}.cls-39{fill:url(#linear-gradient-35);}.cls-40{fill:url(#linear-gradient-36);}.cls-41{fill:url(#linear-gradient-37);}.cls-42,.cls-43{fill:#f58220;}.cls-42{opacity:0.2;}</style><clipPath id="clip-path"><ellipse class="cls-1" cx="630.76" cy="166.17" rx="205.17" ry="75.98"/></clipPath><linearGradient id="linear-gradient" x1="315.63" y1="165.83" x2="501.4" y2="165.83" gradientUnits="userSpaceOnUse"><stop offset="0" stop-color="#f58220"/><stop offset="0.09" stop-color="#f79847"/><stop offset="0.25" stop-color="#fabc88"/><stop offset="0.39" stop-color="#fcd9bb"/><stop offset="0.52" stop-color="#feeee0"/><stop offset="0.62" stop-color="#fffaf7"/><stop offset="0.69" stop-color="#fff"/></linearGradient><linearGradient id="linear-gradient-2" x1="332.33" y1="165.83" x2="518.1" y2="165.83" xlink:href="#linear-gradient"/><linearGradient id="linear-gradient-3" x1="349.02" y1="165.83" x2="534.8" y2="165.83" xlink:href="#linear-gradient"/><linearGradient id="linear-gradient-4" x1="365.72" y1="165.83" x2="551.5" y2="165.83" xlink:href="#linear-gradient"/><linearGradient id="linear-gradient-5" x1="382.42" y1="165.83" x2="568.2" y2="165.83" xlink:href="#linear-gradient"/><linearGradient id="linear-gradient-6" x1="399.12" y1="165.83" x2="584.9" y2="165.83" xlink:href="#linear-gradient"/><linearGradient id="linear-gradient-7" x1="415.82" y1="165.83" x2="601.59" y2="165.83" xlink:href="#linear-gradient"/><linearGradient id="linear-gradient-8" x1="432.52" y1="165.83" x2="618.29" y2="165.83" xlink:href="#linear-gradient"/><linearGradient id="linear-gradient-9" x1="449.22" y1="165.83" x2="634.99" y2="165.83" xlink:href="#linear-gradient"/><linearGradient id="linear-gradient-10" x1="465.92" y1="165.83" x2="651.69" y2="165.83" xlink:href="#linear-gradient"/><linearGradient id="linear-gradient-11" x1="482.62" y1="165.83" x2="668.39" y2="165.83" xlink:href="#linear-gradient"/><linearGradient id="linear-gradient-12" x1="499.32" y1="165.83" x2="685.09" y2="165.83" xlink:href="#linear-gradient"/><linearGradient id="linear-gradient-13" x1="516.02" y1="165.83" x2="701.79" y2="165.83" xlink:href="#linear-gradient"/><linearGradient id="linear-gradient-14" x1="532.72" y1="165.83" x2="718.49" y2="165.83" xlink:href="#linear-gradient"/><linearGradient id="linear-gradient-15" x1="549.42" y1="165.83" x2="735.19" y2="165.83" xlink:href="#linear-gradient"/><linearGradient id="linear-gradient-16" x1="566.12" y1="165.83" x2="751.89" y2="165.83" xlink:href="#linear-gradient"/><linearGradient id="linear-gradient-17" x1="582.81" y1="165.83" x2="768.59" y2="165.83" xlink:href="#linear-gradient"/><linearGradient id="linear-gradient-18" x1="599.51" y1="165.83" x2="785.29" y2="165.83" xlink:href="#linear-gradient"/><linearGradient id="linear-gradient-19" x1="616.21" y1="165.83" x2="801.98" y2="165.83" xlink:href="#linear-gradient"/><linearGradient id="linear-gradient-20" x1="632.91" y1="165.83" x2="818.68" y2="165.83" xlink:href="#linear-gradient"/><linearGradient id="linear-gradient-21" x1="649.61" y1="165.83" x2="835.38" y2="165.83" xlink:href="#linear-gradient"/><linearGradient id="linear-gradient-22" x1="666.31" y1="165.83" x2="852.08" y2="165.83" xlink:href="#linear-gradient"/><linearGradient id="linear-gradient-23" x1="683.01" y1="165.83" x2="868.78" y2="165.83" xlink:href="#linear-gradient"/><linearGradient id="linear-gradient-24" x1="699.71" y1="165.83" x2="885.48" y2="165.83" xlink:href="#linear-gradient"/><linearGradient id="linear-gradient-25" x1="716.41" y1="165.83" x2="902.18" y2="165.83" xlink:href="#linear-gradient"/><linearGradient id="linear-gradient-26" x1="733.11" y1="165.83" x2="918.88" y2="165.83" xlink:href="#linear-gradient"/><linearGradient id="linear-gradient-27" x1="749.81" y1="165.83" x2="935.58" y2="165.83" xlink:href="#linear-gradient"/><linearGradient id="linear-gradient-28" x1="671.14" y1="227.05" x2="671.14" y2="143.7" gradientUnits="userSpaceOnUse"><stop offset="0.33" stop-color="#404141"/><stop offset="0.38" stop-color="#454646" stop-opacity="0.85"/><stop offset="0.59" stop-color="#595a5a" stop-opacity="0.23"/><stop offset="0.7" stop-color="#616262" stop-opacity="0"/></linearGradient><linearGradient id="linear-gradient-29" x1="764.63" y1="227.05" x2="764.63" y2="143.7" xlink:href="#linear-gradient-28"/><linearGradient id="linear-gradient-30" x1="555.23" y1="227" x2="555.23" y2="143.64" xlink:href="#linear-gradient-28"/><linearGradient id="linear-gradient-31" x1="471.37" y1="227.05" x2="471.37" y2="143.7" xlink:href="#linear-gradient-28"/><linearGradient id="linear-gradient-32" x1="378.87" y1="227.05" x2="378.87" y2="143.7" xlink:href="#linear-gradient-28"/><linearGradient id="linear-gradient-33" x1="649.27" y1="113.83" x2="649.27" y2="197.22" gradientUnits="userSpaceOnUse"><stop offset="0.19" stop-color="#f89821"/><stop offset="0.31" stop-color="#f69321"/><stop offset="0.45" stop-color="#f18322"/><stop offset="0.61" stop-color="#e96a24"/><stop offset="0.78" stop-color="#dd4626"/><stop offset="0.83" stop-color="#d93b27"/></linearGradient><linearGradient id="linear-gradient-34" x1="751.02" y1="113.83" x2="751.02" y2="197.22" xlink:href="#linear-gradient-33"/><linearGradient id="linear-gradient-35" x1="552.24" y1="113.83" x2="552.24" y2="197.22" xlink:href="#linear-gradient-33"/><linearGradient id="linear-gradient-36" x1="456.11" y1="113.83" x2="456.11" y2="197.22" xlink:href="#linear-gradient-33"/><linearGradient id="linear-gradient-37" x1="363.82" y1="113.83" x2="363.82" y2="197.22" xlink:href="#linear-gradient-33"/></defs><title>Angito_Banner_Ve chung toi</title><ellipse class="cls-2" cx="525.03" cy="193.43" rx="263.38" ry="80.12"/><g class="cls-3"><g class="cls-4"><polygon class="cls-5" points="319.06 250.8 315.63 247.66 497.97 80.86 501.4 83.99 319.06 250.8"/><polygon class="cls-6" points="335.75 250.8 332.33 247.66 514.67 80.86 518.1 83.99 335.75 250.8"/><polygon class="cls-7" points="352.45 250.8 349.02 247.66 531.37 80.86 534.8 83.99 352.45 250.8"/><polygon class="cls-8" points="369.15 250.8 365.73 247.66 548.07 80.86 551.5 83.99 369.15 250.8"/><polygon class="cls-9" points="385.85 250.8 382.42 247.66 564.77 80.86 568.2 83.99 385.85 250.8"/><polygon class="cls-10" points="402.55 250.8 399.12 247.66 581.47 80.86 584.9 83.99 402.55 250.8"/><polygon class="cls-11" points="419.25 250.8 415.82 247.66 598.17 80.86 601.59 83.99 419.25 250.8"/><polygon class="cls-12" points="435.95 250.8 432.52 247.66 614.87 80.86 618.29 83.99 435.95 250.8"/><polygon class="cls-13" points="452.65 250.8 449.22 247.66 631.57 80.86 634.99 83.99 452.65 250.8"/><polygon class="cls-14" points="469.35 250.8 465.92 247.66 648.26 80.86 651.69 83.99 469.35 250.8"/><polygon class="cls-15" points="486.05 250.8 482.62 247.66 664.96 80.86 668.39 83.99 486.05 250.8"/><polygon class="cls-16" points="502.75 250.8 499.32 247.66 681.66 80.86 685.09 83.99 502.75 250.8"/><polygon class="cls-17" points="519.45 250.8 516.02 247.66 698.36 80.86 701.79 83.99 519.45 250.8"/><polygon class="cls-18" points="536.14 250.8 532.72 247.66 715.06 80.86 718.49 83.99 536.14 250.8"/><polygon class="cls-19" points="552.84 250.8 549.41 247.66 731.76 80.86 735.19 83.99 552.84 250.8"/><polygon class="cls-20" points="569.54 250.8 566.12 247.66 748.46 80.86 751.89 83.99 569.54 250.8"/><polygon class="cls-21" points="586.24 250.8 582.81 247.66 765.16 80.86 768.59 83.99 586.24 250.8"/><polygon class="cls-22" points="602.94 250.8 599.51 247.66 781.86 80.86 785.29 83.99 602.94 250.8"/><polygon class="cls-23" points="619.64 250.8 616.21 247.66 798.56 80.86 801.99 83.99 619.64 250.8"/><polygon class="cls-24" points="636.34 250.8 632.91 247.66 815.26 80.86 818.68 83.99 636.34 250.8"/><polygon class="cls-25" points="653.04 250.8 649.61 247.66 831.96 80.86 835.38 83.99 653.04 250.8"/><polygon class="cls-26" points="669.74 250.8 666.31 247.66 848.65 80.86 852.08 83.99 669.74 250.8"/><polygon class="cls-27" points="686.44 250.8 683.01 247.66 865.35 80.86 868.78 83.99 686.44 250.8"/><polygon class="cls-28" points="703.14 250.8 699.71 247.66 882.05 80.86 885.48 83.99 703.14 250.8"/><polygon class="cls-29" points="719.84 250.8 716.41 247.66 898.75 80.86 902.18 83.99 719.84 250.8"/><polygon class="cls-30" points="736.53 250.8 733.11 247.66 915.45 80.86 918.88 83.99 736.53 250.8"/><polygon class="cls-31" points="753.23 250.8 749.8 247.66 932.15 80.86 935.58 83.99 753.23 250.8"/></g></g><path class="cls-32" d="M653.54,168.25h18l14.69,26.41,26.94-26.41h19.29l-43.75,42.89H672.11l-15.22-27.26-27.81,27.26H609.79Z"/><path class="cls-33" d="M753.84,168.25h34.65c27.92,0,37.78,9.25,25.47,21.32l-.13.13c-12.31,12.06-41.17,21.44-69.09,21.44H710.08Zm-.41,34.37c15.86,0,32.09-5.21,39.84-12.8l.12-.12c7.75-7.6,2.27-12.93-13.59-12.93H764.69l-26.37,25.85Z"/><polygon class="cls-34" points="587.29 167.89 505.14 211.08 525.07 211.08 584.49 179.22 576.1 202.87 578.89 211.08 599.33 211.08 605.32 167.89 587.29 167.89"/><path class="cls-35" d="M523.54,172.6c-3-2.88-10.16-4.35-21.45-4.35H461.47l-43.75,42.89h19.54l35.07-34.37h19.42c9.64,0,13.3,2,9.11,6.12l-.12.13c-3.76,3.67-11.52,6.06-21.17,6.06H465.49l6.17,22.06h22.85l-6.07-15.32c13.35-2,25.53-6.37,32.6-13.29l.12-.13C525.35,178.3,526.12,175.05,523.54,172.6Z"/><path class="cls-36" d="M430.42,172.05c-2.64-2.51-9.07-3.8-19.36-3.8H369.81l-43.75,42.89h42.27c20.06,0,37.25-3.92,45.26-11.77l.12-.12c5.81-5.7,2.47-8.64-5.88-10.54,8-1.59,16.24-4.47,21.12-9.25l.13-.12C432,176.46,432.48,174,430.42,172.05ZM408,180.93l-.13.13c-3.25,3.18-10.08,4.53-18.71,4.53h-3.57l-3.69,7.84h3.83c10.15,0,12.65,1.78,9.72,4.66l-.13.12c-3.25,3.19-10,4.66-18.58,4.66H353.54l26.87-26.35h19.3C408,176.52,411,178.06,408,180.93Z"/><path class="cls-37" d="M609.79,122.28h18L669.45,177V122.28h19.29v88.86H672.11l-43-56.49v56.49h-19.3Z"/><path class="cls-38" d="M710.08,122.28h34.65c27.93,0,47.22,19.17,47.22,44.18v.25c0,25-19.29,44.43-47.22,44.43H710.08Zm34.65,71.22c15.87,0,26.79-10.8,26.79-26.53v-.26c0-15.74-10.92-26.78-26.79-26.78h-15.1V193.5Z"/><polygon class="cls-39" points="561.25 121.65 543.23 121.65 505.15 211.14 525.08 211.14 551.99 145.13 578.9 211.14 599.33 211.14 561.25 121.65"/><path class="cls-40" d="M472.8,179.4c11.3-4.18,19-13.2,19-27.54v-.25c0-8.51-2.53-15.23-7.61-20.31-6-6-14.6-9-25.9-9H417.72v88.86h19.54V139.93h19.42c9.65,0,15.36,4.19,15.36,12.69v.26c0,7.61-5.33,12.56-15,12.56h-4.82v15.77c9,14,19.42,29.93,19.42,29.93h22.85Z"/><path class="cls-41" d="M385,164.68c6.34-3.3,11.67-9.26,11.67-19.16v-.26a20.58,20.58,0,0,0-6.09-15.1c-5.2-5.21-13-7.88-23.23-7.88H326.06v88.86h42.27c20.05,0,33.25-8.13,33.25-24.37v-.26C401.58,174.71,395.24,168.62,385,164.68Zm-16.63,31.06H345.1v-59h19.29c10.69,0,14.82,4.74,14.82,9.85,0,8.78-7.46,11.58-16.09,11.58h-2.07v16.25h6.64c10.16,0,15.27,4.23,15.27,10.2C383,192.75,377.79,195.74,368.33,195.74Z"/><path class="cls-42" d="M280.2,283.36h28.57a6.18,6.18,0,0,1,6.28,6.09v30.28a6.19,6.19,0,0,1-6.28,6.09H280.2a6.19,6.19,0,0,1-6.28-6.09V289.45A6.18,6.18,0,0,1,280.2,283.36Z"/><path class="cls-43" d="M300.91,281.36H286a.8.8,0,1,0,0,1.6h14.88a.8.8,0,1,0,0-1.6Zm0,0"/><path class="cls-43" d="M300.91,292.57H286a.8.8,0,1,0,0,1.6h14.88a.8.8,0,1,0,0-1.6Zm0,0"/><path class="cls-43" d="M280.72,277.55a.85.85,0,0,0-1.17.08l-5.16,5.84-3.16-2.29a.84.84,0,0,0-1.16.16.78.78,0,0,0,.17,1.12L274,285.2a.8.8,0,0,0,.49.16.81.81,0,0,0,.63-.28l5.67-6.41a.77.77,0,0,0-.09-1.12Zm0,0"/><path class="cls-43" d="M280.72,288.76a.84.84,0,0,0-1.17.09l-5.16,5.84-3.16-2.3a.84.84,0,0,0-1.16.16.78.78,0,0,0,.17,1.12l3.78,2.75a.87.87,0,0,0,.49.16.84.84,0,0,0,.63-.28l5.67-6.41a.78.78,0,0,0-.09-1.13Zm0,0"/><path class="cls-43" d="M279.55,300.86l-5.16,5.84-3.16-2.3a.86.86,0,0,0-1.16.16.78.78,0,0,0,.17,1.12l3.78,2.75a.8.8,0,0,0,.49.16.81.81,0,0,0,.63-.28l5.67-6.4a.78.78,0,0,0-.09-1.13.84.84,0,0,0-1.17.08Zm0,0"/><path class="cls-43" d="M286,313.4H273.77a8.29,8.29,0,0,1-8.41-8.15V281.5a8.29,8.29,0,0,1,8.41-8.15h24.52a8.29,8.29,0,0,1,8.41,8.15v19.15a.82.82,0,0,0,.83.8.81.81,0,0,0,.82-.8V281.5a9.92,9.92,0,0,0-10.06-9.75H273.77a9.92,9.92,0,0,0-10.07,9.75v23.75A9.92,9.92,0,0,0,273.77,315H286a.8.8,0,1,0,0-1.6Zm0,0"/><path class="cls-43" d="M310.32,307.84a.81.81,0,0,0-.68-.55l-6.43-.88L300.34,301a.88.88,0,0,0-1.47,0L296,306.41l-6.43.88a.8.8,0,0,0-.67.55.77.77,0,0,0,.22.82l4.63,4.22-1.09,5.95a.79.79,0,0,0,.32.78.83.83,0,0,0,.87.07l5.76-2.82,5.76,2.82a.81.81,0,0,0,.37.09.83.83,0,0,0,.82-.94l-1.1-5.95,4.64-4.22a.79.79,0,0,0,.22-.82ZM304,312a.82.82,0,0,0-.25.72l.88,4.8L300,315.24a.92.92,0,0,0-.75,0l-4.65,2.29.88-4.8a.8.8,0,0,0-.25-.72l-3.7-3.37,5.14-.7a.8.8,0,0,0,.62-.42l2.33-4.41,2.33,4.41a.83.83,0,0,0,.63.42l5.14.7Zm0,0"/><ellipse class="cls-42" cx="290.44" cy="319.28" rx="55.88" ry="15.81"/><path class="cls-43" d="M785.52,285s0,0,0-.06a.67.67,0,0,0,0-.2v0a.75.75,0,0,0-.09-.25l0-.05h0l0,0a.76.76,0,0,0-.2-.2l-.06,0a.84.84,0,0,0-.21-.11l-.1,0h-.39l-52.91,10.59a.9.9,0,0,0-.72.74.89.89,0,0,0,.48.91L746.43,304l2.66,14.3v0a.74.74,0,0,0,0,.21.43.43,0,0,0,0,.11.67.67,0,0,0,.1.23.11.11,0,0,1,0,.05h0l0,0a.62.62,0,0,0,.14.14,0,0,0,0,0,0,0s0,0,0,0l.18.1.07,0a1.09,1.09,0,0,0,.25,0H750a.91.91,0,0,0,.65-.28l10.1-6.52,10.57,6.66a1,1,0,0,0,.5.14.93.93,0,0,0,.29-.05.91.91,0,0,0,.57-.53l12.76-33.54,0-.1v0a0,0,0,0,0,0,0ZM775,290.67l-21.87,15.58-.1.08s0,0,0,0l-.05.07a.21.21,0,0,0,0,.06.56.56,0,0,0-.09.17v0h0l-2.51,7.9-2-10.68Zm-23.29,25.62,2.48-8,3.87,2.43,1.11.7-3.76,2.43Zm26.56-29.23-31,15.37-12.89-6.58Zm-6.83,30-14-8.85-2.13-1.34,27.49-19.58Zm0,0"/><path class="cls-42" d="M790.31,295.42v-.05a.75.75,0,0,0-.09-.25l0-.05h0l0,0a.76.76,0,0,0-.2-.2l-.06,0a.58.58,0,0,0-.21-.1l-.1,0h-.39L736.3,305.26a.9.9,0,0,0-.72.75.89.89,0,0,0,.48.9l15.16,7.74,2.66,14.3v0a.74.74,0,0,0,0,.21.43.43,0,0,0,0,.11.67.67,0,0,0,.1.23.11.11,0,0,1,0,.05h0s0,0,0,0a.62.62,0,0,0,.14.14,0,0,0,0,0,0,0l0,0,.18.09.07,0a1.09,1.09,0,0,0,.25,0h.06a.91.91,0,0,0,.65-.28l10.1-6.52,10.57,6.66a1,1,0,0,0,.5.14.93.93,0,0,0,.29-.05.91.91,0,0,0,.57-.53l12.76-33.54,0-.1v0a0,0,0,0,0,0,0s0,0,0-.06A.67.67,0,0,0,790.31,295.42Z"/><ellipse class="cls-42" cx="759.22" cy="319.28" rx="55.88" ry="15.81"/><path class="cls-42" d="M478.35,316.3a8.34,8.34,0,0,0-11.36,0l-32.17,30.55,0,0,0,.06a.66.66,0,0,0-.11.2l0,.07v0l-3.16,12.58a1,1,0,0,0,0,.17s0,0,0,0a.67.67,0,0,0,.06.28.14.14,0,0,1,0,.06,1.14,1.14,0,0,0,.18.25,1.17,1.17,0,0,0,.3.19.92.92,0,0,0,.33.06l.21,0,13.25-3,.07,0,.09,0a1,1,0,0,0,.17-.1l.07-.05,0,0,32.18-30.55A7.36,7.36,0,0,0,478.35,316.3Z"/><ellipse class="cls-42" cx="433.62" cy="354.35" rx="54.98" ry="15.81"/><path class="cls-43" d="M614.07,309.58c-10.19,0-18.49,7.88-18.49,17.56a17.56,17.56,0,0,0,12,16.41V353a1.06,1.06,0,0,0,1.09,1h1.09V356a1.06,1.06,0,0,0,1.09,1h6.52a1.06,1.06,0,0,0,1.09-1V354h1.09a1.06,1.06,0,0,0,1.09-1v-9.4a17.56,17.56,0,0,0,12-16.41c0-9.68-8.3-17.56-18.49-17.56Zm3.26,42.34a1.05,1.05,0,0,0-1.08,1V355h-4.36V353a1.05,1.05,0,0,0-1.08-1h-1.09v-5.17h8.7v5.17Zm1.84-10.08a1,1,0,0,0-.75,1v1.87h-8.7v-1.87a1,1,0,0,0-.75-1,15.54,15.54,0,0,1-11.21-14.7c0-8.54,7.32-15.49,16.31-15.49s16.31,7,16.31,15.49a15.54,15.54,0,0,1-11.21,14.7Zm0,0"/><path class="cls-43" d="M592.32,326.1H588a1,1,0,1,0,0,2.07h4.35a1,1,0,1,0,0-2.07Zm0,0"/><path class="cls-43" d="M640.57,326.1h-4.34a1,1,0,1,0,0,2.07h4.34a1,1,0,1,0,0-2.07Zm0,0"/><path class="cls-43" d="M631.76,308.89l-3.08,2.91a1,1,0,0,0,0,1.46,1.11,1.11,0,0,0,.77.3,1.13,1.13,0,0,0,.77-.3l3.07-2.92a1,1,0,0,0,0-1.45,1.11,1.11,0,0,0-1.53,0Zm0,0"/><path class="cls-43" d="M597.92,341l-3.07,2.92a1,1,0,0,0,0,1.46,1.11,1.11,0,0,0,.76.3,1.1,1.1,0,0,0,.77-.3l3.08-2.92a1,1,0,0,0,0-1.46,1.14,1.14,0,0,0-1.54,0Zm0,0"/><path class="cls-43" d="M630.22,341a1.14,1.14,0,0,0-1.54,0,1,1,0,0,0,0,1.46l3.08,2.92a1.1,1.1,0,0,0,.77.3,1.11,1.11,0,0,0,.76-.3,1,1,0,0,0,0-1.46Zm0,0"/><path class="cls-43" d="M597.92,313.26a1.13,1.13,0,0,0,.77.3,1.11,1.11,0,0,0,.77-.3,1,1,0,0,0,0-1.46l-3.08-2.91a1.11,1.11,0,0,0-1.53,0,1,1,0,0,0,0,1.45Zm0,0"/><ellipse class="cls-42" cx="621.61" cy="332.24" rx="15.06" ry="14.3"/><ellipse class="cls-42" cx="615.14" cy="354.35" rx="55.88" ry="15.81"/><path class="cls-43" d="M180.56,209.26l-17.2-5.73a6.51,6.51,0,0,0-5,.3l-.85.39a5.13,5.13,0,0,1-3.77.22l-1.48-.56s-.13,0-.22-.09l-8.78-2.91a.8.8,0,0,0-.63.05.91.91,0,0,0-.44.47l-7.35,20.87a.73.73,0,0,0,.49,1l8.83,2.95a.44.44,0,0,0,.22.05.58.58,0,0,0,.4-.09.64.64,0,0,0,.41-.48l3.67-10.32,3.45-9.72.9.3a6.64,6.64,0,0,0,5.06-.3l.85-.4a5,5,0,0,1,3.72-.21l16.52,5.51A3.63,3.63,0,0,1,178,213c-.81.57-2,.57-3.45.05l-7.21-2.35a.76.76,0,0,0-.67.05.63.63,0,0,0-.41.47,9.85,9.85,0,0,1-4.47,5.6c-2.11,1.13-4.71,1.17-7.75.17a.77.77,0,0,0-1,.48.76.76,0,0,0,.49,1,15.16,15.16,0,0,0,4.61.78,9.16,9.16,0,0,0,4.48-1,10.64,10.64,0,0,0,4.93-5.81l6.45,2.17a4.86,4.86,0,0,0,7.12-4.6A.8.8,0,0,0,180.56,209.26Zm-36.64,15.18-7.25-2.38,6.85-19.36,7,2.35.18,0Z"/><polygon class="cls-42" points="149.91 208.7 143.1 228.05 135.84 225.66 142.69 206.31 149.73 208.65 149.91 208.7"/><path class="cls-43" d="M202.6,221.19l-10-19.79a.93.93,0,0,0-.49-.39,1.5,1.5,0,0,0-.63.05l-8.38,4a.78.78,0,0,0-.4,1l9.76,19.31-3.27,2.91a39.51,39.51,0,0,1-9.27,6.11l-16,7.55a1.79,1.79,0,0,1-2.47-.82,1.68,1.68,0,0,1-.09-1.39,2,2,0,0,1,.94-1l9-4.21a.85.85,0,0,0,.41-1.08.9.9,0,0,0-1.17-.35l-8.69,4.12-4.43,2.08a1.92,1.92,0,0,1-2.51-.82,1.77,1.77,0,0,1,.85-2.39L168.51,230a.79.79,0,0,0,.41-1.08.91.91,0,0,0-1.12-.39L158.26,233l-3.32,1.56-1.57.73a1.83,1.83,0,0,1-2.46-.82,1.76,1.76,0,0,1,.85-2.43l1.57-.74,11.51-5.46a.8.8,0,0,0,.4-1,.91.91,0,0,0-1.16-.39l-7.35,3.48-4.12,2a2,2,0,0,1-1.43,0A1.71,1.71,0,0,1,150,227.7a1.87,1.87,0,0,1,1-1l6.09-2.91a.83.83,0,0,0,.36-1.09.85.85,0,0,0-1.07-.39l-6.14,2.91a3.55,3.55,0,0,0-1.79,1.95,3.34,3.34,0,0,0,.18,2.65,3.77,3.77,0,0,0,1.47,1.52,3.35,3.35,0,0,0-.71,3.9,3.56,3.56,0,0,0,3.22,1.91h.45a3.32,3.32,0,0,0,.27,2,3.56,3.56,0,0,0,3.18,1.91,3.82,3.82,0,0,0,1.52-.34l1.57-.74a3.36,3.36,0,0,0,.31,1.86,3.55,3.55,0,0,0,3.23,1.91,4,4,0,0,0,1.52-.34l16-7.6a42,42,0,0,0,9.68-6.38l3.63-3.25,8.24-3.91A.79.79,0,0,0,202.6,221.19Zm-8.78,3.3-9.27-18.36,6.9-3.25,9.23,18.4Z"/><polygon class="cls-42" points="203.57 224.44 196.72 227.65 187.44 209.3 194.34 206.04 203.57 224.44"/><path class="cls-42" d="M190.41,217.22s-4.07.4-8.42,1.31a32.66,32.66,0,0,0-7.12,2.21l-19,9a1.55,1.55,0,0,0-.86,1.35,1.25,1.25,0,0,0,.18.69,1.63,1.63,0,0,0,2.11.65l12.35-5.88s2.36-.21,1.1,1.82l-14,6.8a1.46,1.46,0,0,0-.85,1.3,1.17,1.17,0,0,0,.18.69,1.58,1.58,0,0,0,2.1.66l15-7.25s2.21.29,1.23,2h0l-13.46,6.35a1.52,1.52,0,0,0-.85,1.35,1.19,1.19,0,0,0,.18.69,1.58,1.58,0,0,0,2.1.65l13.33-6.32h0a1.3,1.3,0,0,1,1.38.56c.41.77-.45,1.4-.45,1.4h0l-9.38,4.49a1.48,1.48,0,0,0-.85,1.3,1.31,1.31,0,0,0,.18.7,1.53,1.53,0,0,0,2.06.65L186.42,236a2.24,2.24,0,0,0,.36-.26c1.44-1,7-5.12,9.14-7.55Z"/><line class="cls-1" x1="148.85" y1="215.38" x2="148.27" y2="215.2"/><path class="cls-42" d="M174.21,213.27a2.93,2.93,0,0,1-1.07,2,3.05,3.05,0,0,1-2.75,0l-5.75-1.87a.56.56,0,0,0-.53,0,.49.49,0,0,0-.32.38,7.88,7.88,0,0,1-3.57,4.46,7.71,7.71,0,0,1-6.17.14l-4.14-1.32,2.74-7.74.72.24a5.28,5.28,0,0,0,4-.24l.68-.31a4,4,0,0,1,3-.17Z"/><ellipse class="cls-42" cx="169.17" cy="241.72" rx="51.66" ry="12.88"/><path class="cls-43" d="M903.56,216.84a3.45,3.45,0,0,0,.92-3.58,3.62,3.62,0,0,0-2.91-2.38l-12.16-1.71a1.56,1.56,0,0,1-1.19-.84l-5.43-10.66a3.65,3.65,0,0,0-6.44,0l-5.43,10.66a1.56,1.56,0,0,1-1.21.84l-12.14,1.71a3.58,3.58,0,0,0-2.91,2.38,3.39,3.39,0,0,0,.92,3.58l8.78,8.28a1.52,1.52,0,0,1,.46,1.37l-2.08,11.73a3.41,3.41,0,0,0,1.45,3.41,3.58,3.58,0,0,0,3.78.25l10.86-5.54a1.74,1.74,0,0,1,1.48,0l10.86,5.54a3.69,3.69,0,0,0,1.67.42,3.6,3.6,0,0,0,2.11-.67,3.41,3.41,0,0,0,1.45-3.41l-2.08-11.73a1.52,1.52,0,0,1,.46-1.37Zm-11.21,10,2,11.72a1.44,1.44,0,0,1-.63,1.51,1.58,1.58,0,0,1-1.65.12l-10.89-5.54a3.51,3.51,0,0,0-1.67-.4,3.7,3.7,0,0,0-1.68.4L867,240.18a1.64,1.64,0,0,1-1.68-.12,1.47,1.47,0,0,1-.6-1.51l2-11.72a3.41,3.41,0,0,0-1-3.08L857,215.44a1.52,1.52,0,0,1-.41-1.57,1.6,1.6,0,0,1,1.3-1.06L870,211.1a3.53,3.53,0,0,0,2.72-1.9l5.43-10.66a1.61,1.61,0,0,1,2.86,0l5.43,10.66a3.53,3.53,0,0,0,2.72,1.9l12.13,1.71a1.52,1.52,0,0,1,1.27,1.06,1.45,1.45,0,0,1-.38,1.57l-8.81,8.31A3.41,3.41,0,0,0,892.35,226.83Z"/><path class="cls-42" d="M901.86,226.48a3.39,3.39,0,0,0-1,3.08l2,11.72a1.45,1.45,0,0,1-.64,1.51,1.56,1.56,0,0,1-1.64.12l-10.89-5.54a3.53,3.53,0,0,0-1.68-.4,3.66,3.66,0,0,0-1.67.4l-10.86,5.54a1.64,1.64,0,0,1-1.68-.12,1.47,1.47,0,0,1-.6-1.51l2-11.72a3.42,3.42,0,0,0-1-3.08l-8.81-8.31a1.54,1.54,0,0,1-.4-1.57,1.57,1.57,0,0,1,1.3-1.06l12.13-1.71a3.53,3.53,0,0,0,2.72-1.9l5.43-10.66a1.61,1.61,0,0,1,2.86,0l5.43,10.66a3.53,3.53,0,0,0,2.71,1.9l12.14,1.71a1.52,1.52,0,0,1,1.27,1.06,1.47,1.47,0,0,1-.38,1.57Z"/><ellipse class="cls-42" cx="880.49" cy="241.72" rx="51.66" ry="12.88"/><path class="cls-43" d="M474,311.94a8.51,8.51,0,0,0-11.17.51l-31,29.41a4.88,4.88,0,0,0-1.39,2.32l-2.8,10.7a2.6,2.6,0,0,0-.18,1.42.91.91,0,0,0,.42.47c.39.21,1.59-.16,2.18-.29L440.74,354a5.24,5.24,0,0,0,2.44-1.31l31.16-29.59A7.35,7.35,0,0,0,474,311.94Zm-32.37,40-9.81,2.38a1.24,1.24,0,0,1-1.15-.31l-.28-.28a1.08,1.08,0,0,1-.3-1.06l2.32-8.94,26.19-24.85,8.83,8.37Zm27.06-25.88-8.83-8.39,1.26-1.19,8.83,8.38Zm2.53-2.39-8.84-8.39,1.26-1.2,8.84,8.39Zm2.47-2.45-8.74-8.29a6.5,6.5,0,0,1,8.16.55A5.71,5.71,0,0,1,473.66,321.21Z"/></svg>